PathFileType	4	(X/Y/Z)	/Users/niels/Desktop/University/Third Semester/Perception and Action/Exam/Gymnastics Motion Tracking/Code for Gym Tracking/Analyzed Data/Webcam_Backflip/id2_5_pure_Sports2D/id2_5_pure_Sports2D_px_person00.trc
DataRate	CameraRate	NumFrames	NumMarkers	Units	OrigDataRate	OrigDataStartFrame	OrigNumFrames
29.874476987447697	29.874476987447697	7	22	m	29.874476987447697	89	239
Frame#	Time	Hip			RHip			RKnee			RAnkle			RBigToe			RSmallToe			RHeel			LHip			LKnee			LAnkle			LBigToe			LSmallToe			LHeel			Neck			Head			Nose			RShoulder			RElbow			RWrist			LShoulder			LElbow			LWrist		
		X1	Y1	Z1	X2	Y2	Z2	X3	Y3	Z3	X4	Y4	Z4	X5	Y5	Z5	X6	Y6	Z6	X7	Y7	Z7	X8	Y8	Z8	X9	Y9	Z9	X10	Y10	Z10	X11	Y11	Z11	X12	Y12	Z12	X13	Y13	Z13	X14	Y14	Z14	X15	Y15	Z15	X16	Y16	Z16	X17	Y17	Z17	X18	Y18	Z18	X19	Y19	Z19	X20	Y20	Z20	X21	Y21	Z21	X22	Y22	Z22
89	2.9791316526610645	0.7280739712893175	-0.6694880450457138	0.0	0.7215271320030366	-0.668404955121831	0.0	0.7512475666133611	-0.7777591368269806	0.0	0.6971068369418696	-0.8710540110863016	0.0	0.7224712866675409	-0.8937180827415765	0.0	0.7143406172935877	-0.8948687553541039	0.0	0.6790160729680345	-0.8764426644125415	0.0	0.7405846223157901	-0.6707082077286529	0.0	0.780915651931412	-0.7702076353988957	0.0	0.7112221318049063	-0.8632723910044948	0.0	0.7414165426707235	-0.8827323768336214	0.0	0.7338505409037547	-0.8803319467624168	0.0	0.6870271576740592	-0.8703120141580233	0.0	0.7808964406476475	-0.5254589014305939	0.0	0.82203246206286	-0.4589482413684822	0.0	0.8213198675469291	-0.49809957483586903	0.0	0.7740360974996339	-0.5258902153092351	0.0	0.8211702427571577	-0.46372226093589797	0.0	0.8539085516532825	-0.3952400472471481	0.0	0.7820751253925646	-0.5334050504177765	0.0	0.8027575509792494	-0.4663826993959382	0.0	0.8398649747065136	-0.399633477816721	0.0
90	3.0126050420168067	0.7223195711176595	-0.6657738055407922	0.0	0.7159614324940424	-0.6646180908985005	0.0	0.7590212762011281	-0.7647508713867066	0.0	0.6966353339712265	-0.8536974905065512	0.0	0.7227571478584793	-0.8796493988798031	0.0	0.7131106625225534	-0.880570261773937	0.0	0.677183292181207	-0.8591311733227787	0.0	0.7341571018687685	-0.6665565554373877	0.0	0.7881246884378873	-0.7572509413075275	0.0	0.7113694833593432	-0.8447085401874257	0.0	0.7383042334455723	-0.8661135064729503	0.0	0.7313657182982235	-0.8644517043944933	0.0	0.6865952458688805	-0.8521580075124541	0.0	0.7787690055071697	-0.5260161303561177	0.0	0.8162199993042404	-0.459804855119306	0.0	0.8181464932313158	-0.49792981960373217	0.0	0.772797373496827	-0.5265192251367082	0.0	0.8160682767350194	-0.46413513739358264	0.0	0.8464299192654894	-0.39403983920974134	0.0	0.778327841191252	-0.5328105090922407	0.0	0.8002733464133336	-0.4651761745040236	0.0	0.8345004859337994	-0.39665547364716924	0.0
91	3.046078431372549	0.7173625580979661	-0.6534040715992583	0.0	0.7116660996668656	-0.6523129491916239	0.0	0.7700552771707089	-0.7423295586813022	0.0	0.6982990935726952	-0.8281292909439172	0.0	0.7252672480303685	-0.8568760829970982	0.0	0.7147690927647861	-0.8577147245031618	0.0	0.677617332829796	-0.8338523399575292	0.0	0.7273722365367272	-0.6534770987930437	0.0	0.7945859406407205	-0.7359398220731482	0.0	0.712774100860557	-0.8191904833452716	0.0	0.7369034362975123	-0.8429763056583002	0.0	0.730961495791168	-0.8417989605655802	0.0	0.6873868429195023	-0.8272093600722894	0.0	0.777679828309897	-0.5177898562437732	0.0	0.813294882676891	-0.4521377088298888	0.0	0.8164168040523591	-0.4890200714252226	0.0	0.7732668255788052	-0.518043863207473	0.0	0.8151107817096424	-0.4578279618854406	0.0	0.8457539685990463	-0.3877154896506667	0.0	0.7754918037017491	-0.5227591302589276	0.0	0.8014200731251424	-0.456714202908804	0.0	0.8326365858196044	-0.3884044791190739	0.0
92	3.079551820728291	0.7140147585771915	-0.6353572858722902	0.0	0.7091933488278621	-0.634424110539935	0.0	0.7822629643231629	-0.7154469814557674	0.0	0.7019041477868655	-0.7993387530179356	0.0	0.7299374378643056	-0.8302108624571863	0.0	0.719351488023768	-0.8310171968571487	0.0	0.6805145291248728	-0.8054712548797363	0.0	0.7218912885477949	-0.6346859192524476	0.0	0.8000730065630534	-0.7105394675461997	0.0	0.7152946528131803	-0.7915024894791948	0.0	0.7378110941314009	-0.8177769838998658	0.0	0.7329450457060885	-0.8168632984419862	0.0	0.689439314349351	-0.8000919390264366	0.0	0.7768947319768228	-0.5029846563008665	0.0	0.8120849059677705	-0.4376766458932368	0.0	0.8153737582877432	-0.4735504322449122	0.0	0.7741869230511543	-0.5027983106620728	0.0	0.8168198638387835	-0.44569308803913016	0.0	0.8496801025112195	-0.37679710556231744	0.0	0.7733926447517031	-0.5059596119958808	0.0	0.8042022205919747	-0.44234668667702143	0.0	0.8340432769575311	-0.37579279476223365	0.0
93	3.1130252100840337	0.7127934815995298	-0.614493403436403	0.0	0.708613500278445	-0.6137858429430857	0.0	0.7926961929832842	-0.6890499028948154	0.0	0.7067399692306392	-0.7724785273308526	0.0	0.7361892437230717	-0.8048048661411652	0.0	0.7260419192294948	-0.8056073408909911	0.0	0.6853257055407731	-0.7791868283662051	0.0	0.719449800908777	-0.6132915774658864	0.0	0.8046807958178713	-0.6850583715849166	0.0	0.7191758851881144	-0.7658495236426633	0.0	0.7414878224082957	-0.7942168069558058	0.0	0.7375280926489313	-0.7932183246616115	0.0	0.6932533141410174	-0.7750552182717744	0.0	0.7760922717816394	-0.4840384741563916	0.0	0.8116971514391523	-0.4187025816929925	0.0	0.8147022154403575	-0.45391069647551	0.0	0.7747515297786634	-0.48342730807704326	0.0	0.8196601302336007	-0.4293698774925141	0.0	0.8556569594443444	-0.3624957253427076	0.0	0.772241911578684	-0.48530457231934426	0.0	0.8077888249962083	-0.4241935910477623	0.0	0.8383181435122633	-0.36030129258277876	0.0
94	3.146498599439776	0.713776868579059	-0.5931953556986376	0.0	0.7096921237828246	-0.5928250445559304	0.0	0.7992508276490795	-0.6667303986372621	0.0	0.7120235778977851	-0.7515681495561691	0.0	0.7433135911475028	-0.7843865570325431	0.0	0.7337762682397581	-0.7852469070499827	0.0	0.6912192236035885	-0.7591290305832032	0.0	0.7209136324441503	-0.5918460640089597	0.0	0.8084378677149296	-0.6625355273503317	0.0	0.7249402991564591	-0.7452562637044841	0.0	0.7483205097139688	-0.7747437223096091	0.0	0.7449350401366652	-0.7731681271726414	0.0	0.6996331983666737	-0.75523310623623	0.0	0.7753676507029222	-0.463161187126432	0.0	0.8115693150025785	-0.3974433236420631	0.0	0.8143185142884266	-0.4321280378931476	0.0	0.774761283722988	-0.4623674597368805	0.0	0.8224956958883074	-0.41072504631512063	0.0	0.8615322987495787	-0.3462205405371725	0.0	0.7722776685314854	-0.4633129353788268	0.0	0.8118892116644308	-0.40451890150382525	0.0	0.8445926971345189	-0.34347783430340323	0.0
95	3.179971988795518	0.7165687012470943	-0.5732800986487803	0.0	0.7121555927255286	-0.5734145062749758	0.0	0.8015268074027223	-0.6501921457193721	0.0	0.7173043660912458	-0.7386086849577617	0.0	0.7507130643823965	-0.770782968241653	0.0	0.7417390377499499	-0.7717505036947777	0.0	0.6975518554726076	-0.747406004752582	0.0	0.7256534506639445	-0.5722229810540844	0.0	0.8110459931786049	-0.6448277409429297	0.0	0.7328041484923609	-0.731295365099596	0.0	0.7582099131035482	-0.7606362675627971	0.0	0.7550503765670971	-0.7580671362310089	0.0	0.709019515162632	-0.7423416114176038	0.0	0.7749868498446532	-0.4422304153630844	0.0	0.811331412291626	-0.3757548582798931	0.0	0.8141340691916314	-0.4098861912707656	0.0	0.7745067159092546	-0.44161042959336533	0.0	0.82482364835029	-0.3914437150677988	0.0	0.865933784723673	-0.3292431795639626	0.0	0.7733394723102177	-0.4419790461565527	0.0	0.81619276470124	-0.38529615375359844	0.0	0.8514657464922798	-0.3266999402098945	0.0
